<svg id="Layer_1" data-name="Layer 1" xmlns="http://www.w3.org/2000/svg" viewBox="0 0 2048 1185.4"><defs><style>.cls-1{fill:#0081d0;}.cls-2,.cls-4,.cls-5{fill:#fff;}.cls-2{stroke:#0081d0;stroke-miterlimit:10;stroke-width:26px;}.cls-3{font-size:230.36px;}.cls-3,.cls-6{fill:#ffbc00;}.cls-3,.cls-4,.cls-5{font-family:BDCartoonShout, BD Cartoon Shout;}.cls-4{font-size:297.27px;}.cls-5{font-size:252.26px;}</style></defs><path class="cls-1" d="M1361,998.06H1238.73l-119.47,103.22-1.44-103.22H903.26c-98.09,0-177.61-81.23-177.61-181.43V689.16c0-100.2,79.52-181.43,177.61-181.43H1361c98.1,0,177.62,81.23,177.62,181.43V816.63C1538.59,916.83,1459.07,998.06,1361,998.06Z"/><path class="cls-2" d="M1061.53,639.68H807.35l-3.06,107.54L705.22,639.68H574.42c-104.39,0-189-84.63-189-189V317.84c0-104.39,84.63-189,189-189h487.11c104.4,0,189,84.63,189,189V450.65C1250.56,555.05,1165.93,639.68,1061.53,639.68Z"/><text class="cls-3" transform="translate(461.24 551.79)">Read</text><text class="cls-4" transform="translate(829.05 902.83)">4</text><text class="cls-5" transform="translate(1049.75 898.75)">Me</text><path class="cls-1" d="M1317.48,316.75V437.27A35.74,35.74,0,0,0,1353.22,473h113.2Z"/><path class="cls-6" d="M1473.44,414.37l-24.26-6c.31-1.27,7.33-31.56-14.89-53.62-21.57-21.4-50.79-15.16-52-14.89l-5.46-24.39c4.46-1,44.45-8.87,75.09,21.54C1484.23,369.07,1473.9,412.54,1473.44,414.37Z"/><path class="cls-6" d="M1522.65,434.52l-24.26-6c.15-.62,14.92-62.64-29.72-106.94-43-42.71-101.32-30.27-103.78-29.72l-5.46-24.4c3.39-.76,21.51-4.4,45.6-1.71,31.61,3.53,59.7,16.7,81.25,38.08C1540.89,358,1523.42,431.42,1522.65,434.52Z"/><path class="cls-6" d="M1573.76,454.65l-24.26-6c.06-.25,6-24.83,2.92-57.37-3.94-41.23-20-76.06-47.65-103.53C1440,223.47,1352.34,242.18,1348.64,243l-5.46-24.4c2.92-.65,29.57-6.27,64.43-2.38,44.67,5,84.36,23.58,114.77,53.76C1599.5,346.52,1574.85,450.27,1573.76,454.65Z"/></svg>